<?xml version="1.0" standalone="no"?>
<!DOCTYPE svg PUBLIC "-//W3C//DTD SVG 20010904//EN"
 "http://www.w3.org/TR/2001/REC-SVG-20010904/DTD/svg10.dtd">
<svg version="1.0" xmlns="http://www.w3.org/2000/svg"
 width="100.000000pt" height="100.000000pt" viewBox="0 0 100.000000 100.000000"
 preserveAspectRatio="xMidYMid meet">

<g transform="translate(0.000000,100.000000) scale(0.10000,-0.10000)"
fill="white" stroke="none">
<path d="M386 944 c-171 -41 -308 -192 -338 -371 -51 -303 217 -573 521 -526
98 15 171 52 245 123 340 326 31 885 -428 774z m135 -201 c1 -99 8 -120 42
-141 28 -17 29 -16 117 30 75 40 89 45 94 31 4 -9 5 -17 4 -18 -2 -1 -38 -25
-80 -54 -75 -50 -78 -53 -78 -91 0 -38 3 -41 78 -91 42 -29 78 -53 80 -54 1
-1 0 -10 -4 -19 -5 -14 -19 -9 -94 31 -83 45 -89 47 -115 33 -36 -19 -45 -46
-45 -141 0 -72 -2 -79 -20 -79 -19 0 -20 7 -20 90 0 85 -2 92 -26 115 -15 14
-35 25 -44 25 -10 0 -53 -20 -96 -44 -73 -41 -93 -44 -94 -15 0 4 36 30 80 59
76 50 80 54 80 90 0 36 -4 40 -80 90 -44 29 -80 55 -80 59 1 28 21 25 94 -15
43 -24 86 -44 96 -44 9 0 29 11 44 25 24 23 26 30 26 115 0 83 1 90 20 90 18
0 20 -7 21 -77z m-81 28 c0 -32 -4 -41 -22 -46 -13 -4 -38 -18 -55 -32 -31
-22 -34 -23 -62 -8 -40 20 -44 29 -23 49 28 24 125 76 145 76 13 0 17 -8 17
-39z m198 15 c26 -14 60 -36 76 -49 l29 -23 -37 -22 -37 -22 -32 24 c-18 13
-42 27 -54 31 -19 5 -23 14 -23 46 0 47 11 49 78 15z m-373 -286 c0 -65 -1
-68 -32 -89 l-32 -21 -11 38 c-13 47 -13 97 0 144 l11 38 32 -21 c31 -21 32
-24 32 -89z m552 27 c3 -29 0 -71 -6 -95 l-12 -43 -31 19 c-30 19 -31 22 -31
92 0 68 1 73 29 90 35 24 43 14 51 -63z m-454 -221 c18 -13 42 -27 55 -31 18
-5 22 -14 22 -46 0 -25 -5 -39 -12 -39 -21 0 -111 46 -143 73 l-29 25 34 21
c19 11 36 21 38 21 2 0 18 -11 35 -24z m352 -43 c-32 -27 -122 -73 -142 -73
-8 0 -13 14 -13 39 0 34 4 40 28 49 15 5 38 19 52 30 l25 20 39 -20 40 -21
-29 -24z"/>
<path d="M445 555 c-16 -15 -25 -36 -25 -55 0 -19 9 -40 25 -55 15 -16 36 -25
55 -25 70 0 105 86 55 135 -15 16 -36 25 -55 25 -19 0 -40 -9 -55 -25z m85
-30 c26 -32 -13 -81 -47 -59 -23 14 -28 41 -13 59 16 19 44 19 60 0z"/>
</g>
</svg>
